<?xml version="1.0" standalone="no"?>
<!DOCTYPE svg PUBLIC "-//W3C//DTD SVG 20010904//EN"
 "http://www.w3.org/TR/2001/REC-SVG-20010904/DTD/svg10.dtd">
<svg version="1.0" xmlns="http://www.w3.org/2000/svg"
 width="512.000000pt" height="512.000000pt" viewBox="0 0 512.000000 512.000000"
 preserveAspectRatio="xMidYMid meet">
<metadata>
Created by potrace 1.14, written by Peter Selinger 2001-2017
</metadata>
<g transform="translate(0.000000,512.000000) scale(0.100000,-0.100000)"
fill="#000000" stroke="none">
<path d="M4285 5018 c-26 -14 -40 -17 -43 -9 -4 12 -82 -26 -82 -40 0 -6 -36
-16 -90 -23 -14 -2 -45 -13 -70 -24 -50 -22 -137 -54 -160 -60 -34 -7 -178 -7
-214 0 -26 6 -42 5 -46 -2 -8 -12 -30 -14 -76 -4 -67 13 -197 -58 -253 -140
-16 -22 -41 -65 -56 -94 -33 -64 -43 -63 -15 2 11 27 18 51 15 56 -6 11 5 40
15 40 5 0 6 -9 3 -20 -8 -30 4 -24 22 10 20 39 20 38 -22 36 -32 -1 -38 3 -44
24 -4 14 -7 18 -8 9 -1 -23 -23 -30 -44 -14 -9 7 -31 11 -47 9 -19 -2 -30 1
-30 9 0 7 -3 8 -8 2 -4 -5 -24 -11 -46 -12 -21 -1 -43 -6 -49 -12 -5 -5 -16
-7 -25 -4 -12 5 -14 1 -9 -18 3 -13 9 -44 12 -69 4 -36 2 -32 -13 22 -10 37
-21 70 -24 73 -8 8 -37 8 -70 -1 -18 -4 -28 -2 -28 5 0 6 -4 11 -10 11 -5 0
-10 -6 -10 -14 0 -17 -32 -26 -53 -15 -10 6 -17 4 -21 -6 -7 -20 -26 -19 -26
1 0 12 -4 14 -12 7 -7 -5 -35 -9 -62 -8 -31 1 -50 -4 -53 -12 -3 -7 -10 -13
-15 -13 -6 0 -26 -17 -44 -37 -61 -67 -67 -73 -86 -73 -13 0 -18 -7 -18 -25 0
-23 -17 -32 -52 -26 -5 0 -8 -6 -8 -14 0 -8 -6 -12 -14 -9 -7 3 -21 -6 -30
-20 -11 -18 -25 -26 -46 -26 -21 0 -30 -5 -30 -16 0 -8 -4 -13 -10 -9 -5 3
-18 -3 -29 -14 -36 -36 -52 -40 -85 -21 -35 19 -80 20 -113 2 -12 -7 -24 -8
-27 -4 -2 4 -23 9 -45 10 -35 2 -41 0 -41 -17 0 -28 -66 -57 -88 -39 -8 7 -27
11 -43 10 -20 -3 -31 2 -35 13 -4 9 -12 14 -19 11 -6 -2 -36 9 -65 25 -65 35
-76 36 -84 4 -4 -15 -16 -27 -31 -31 -14 -3 -25 -13 -25 -23 0 -9 -9 -22 -20
-29 -11 -7 -20 -17 -20 -23 0 -15 -28 -40 -48 -43 -12 -2 -18 -14 -20 -41 -4
-40 -25 -71 -42 -60 -5 3 -10 1 -10 -5 0 -6 -5 -8 -10 -5 -6 3 -13 -1 -16 -9
-5 -12 -11 -13 -24 -6 -27 15 -50 12 -50 -5 0 -8 -5 -15 -11 -15 -5 0 -9 -10
-7 -22 2 -15 -2 -23 -12 -24 -8 -1 -21 -2 -28 -3 -7 0 -11 -5 -7 -10 3 -5 -4
-13 -16 -16 -15 -5 -18 -10 -10 -18 18 -18 12 -28 -9 -15 -22 14 -57 0 -53
-21 2 -6 4 -17 5 -23 2 -7 13 -21 26 -31 12 -10 22 -23 22 -28 0 -6 -20 6 -44
25 -49 41 -66 44 -89 18 -22 -24 -21 -34 4 -83 11 -23 18 -43 15 -46 -2 -3
-12 9 -20 25 -20 40 -31 45 -56 32 -20 -11 -19 -13 19 -41 23 -16 45 -29 49
-29 5 0 19 -11 32 -25 41 -44 -10 -24 -68 27 -41 36 -257 144 -337 170 -33 10
-91 32 -130 48 -146 59 -222 89 -270 105 -28 10 -68 25 -90 35 -22 10 -55 21
-73 25 l-32 7 2 -174 3 -173 35 2 c29 2 31 1 11 -5 -25 -8 -42 -32 -22 -32 20
0 12 -28 -10 -35 -11 -4 -19 -9 -16 -11 2 -3 16 0 30 5 17 7 28 7 32 0 4 -5
11 -7 16 -4 5 4 9 1 9 -4 0 -6 -7 -11 -15 -11 -8 0 -15 -7 -15 -15 0 -11 12
-15 43 -15 39 -1 41 -2 23 -15 -18 -14 -19 -16 -2 -34 17 -18 16 -19 -20 -31
-26 -9 -33 -15 -23 -21 8 -5 15 -4 17 1 6 16 29 11 36 -7 4 -9 2 -21 -4 -27
-19 -19 -10 -28 20 -21 40 9 40 -10 0 -33 -52 -30 -30 -40 34 -16 29 11 17
-24 -21 -62 -39 -38 -39 -38 27 -18 16 5 20 2 20 -19 0 -16 -8 -31 -21 -37
-40 -22 -39 -80 1 -80 6 0 8 -4 5 -10 -3 -5 -15 -10 -26 -10 -10 0 -19 -4 -19
-10 0 -5 -9 -10 -20 -10 -11 0 -20 -5 -20 -12 0 -6 -3 -8 -7 -5 -12 12 -31
-13 -26 -34 4 -14 12 -19 24 -16 21 6 21 6 25 -41 2 -24 14 -44 48 -76 25 -23
46 -50 46 -59 0 -9 6 -17 14 -17 20 0 24 -8 32 -68 6 -50 6 -52 -21 -62 -22
-8 -25 -14 -17 -22 16 -16 15 -45 0 -51 -10 -3 -10 -7 1 -20 12 -15 11 -17 -8
-17 l-22 0 22 -31 c22 -32 19 -44 -16 -51 -18 -4 -17 -6 8 -16 34 -14 35 -28
2 -36 -25 -6 -35 -26 -14 -26 8 0 8 -4 0 -14 -10 -11 -8 -15 6 -19 17 -4 17
-5 1 -6 -10 0 -18 -9 -18 -19 0 -11 -8 -34 -17 -52 -12 -25 -13 -35 -4 -38 9
-3 9 -7 0 -18 -7 -9 -8 -14 -1 -14 13 0 9 -27 -6 -42 -18 -18 -14 -28 10 -28
17 0 19 -3 10 -12 -7 -7 -12 -24 -12 -38 0 -14 -5 -31 -12 -38 -7 -7 -8 -12
-3 -12 5 0 0 -7 -11 -15 -19 -14 -19 -15 4 -21 21 -6 21 -8 6 -19 -16 -11 -16
-14 4 -31 29 -24 28 -45 -4 -80 -16 -17 -22 -30 -15 -32 6 -2 8 -8 5 -13 -3
-6 0 -17 8 -26 9 -11 10 -17 2 -20 -6 -2 -20 -10 -30 -17 -18 -14 -18 -15 -1
-33 9 -11 17 -33 17 -49 1 -16 7 -40 14 -54 10 -17 11 -30 5 -43 -11 -19 -3
-57 11 -57 5 0 8 -13 8 -29 -1 -16 8 -37 21 -50 23 -23 24 -30 12 -83 -5 -21
-5 -38 -1 -38 19 0 46 -66 42 -103 -3 -29 0 -41 14 -52 16 -11 17 -17 7 -33
-14 -23 -8 -32 21 -32 20 0 48 16 103 56 13 9 23 14 23 11 0 -2 -30 -28 -66
-56 -37 -28 -60 -51 -51 -51 21 0 27 -22 10 -38 -18 -18 -16 -30 6 -37 21 -6
236 127 236 148 0 6 -9 16 -21 22 -11 5 -19 15 -17 20 1 6 -2 17 -7 25 -8 13
-14 13 -42 -3 -18 -10 -28 -13 -21 -7 6 7 9 18 7 24 -2 6 5 21 16 33 11 13 16
24 10 28 -6 3 -10 4 -10 1 0 -3 -9 3 -20 14 -22 22 -26 35 -7 24 7 -5 6 0 -3
11 -10 12 -15 40 -15 84 0 57 -2 66 -17 65 -12 -1 -18 5 -18 18 0 15 -5 18
-20 13 -28 -9 -25 7 8 40 22 23 23 27 7 21 -11 -4 -36 -10 -55 -13 l-35 -6 31
34 c17 19 34 42 38 53 6 16 3 18 -24 13 -35 -7 -39 2 -10 21 38 23 10 31 -45
12 -43 -15 -53 -16 -48 -4 3 8 14 14 25 14 10 0 16 5 13 10 -4 6 -3 9 2 8 4
-2 19 5 33 15 l25 18 -27 -3 c-15 -2 -27 1 -28 5 -1 12 24 34 35 30 16 -5 12
71 -4 83 -8 6 -11 16 -7 23 4 6 0 18 -9 27 -15 16 -14 18 12 35 28 19 28 19 6
25 -34 9 -12 41 40 56 l42 12 -55 6 -54 5 29 14 c17 8 25 16 18 18 -20 7 -15
33 5 33 21 0 52 29 52 48 0 7 -7 12 -15 12 -24 0 -17 18 13 34 l27 15 -29 1
c-23 0 -26 3 -17 14 6 7 25 16 41 20 17 3 30 10 30 16 0 6 -4 9 -9 5 -5 -3
-12 -1 -15 4 -4 5 9 15 28 22 44 16 37 29 -15 29 -51 0 -50 16 2 25 23 4 50
16 60 26 18 18 18 19 -6 25 -14 3 -51 4 -83 1 -57 -6 -57 -6 -12 5 76 17 121
48 70 48 -11 0 -20 -4 -20 -9 0 -10 -26 -9 -36 2 -4 4 2 7 12 7 11 0 26 6 32
12 10 10 17 10 33 0 13 -8 36 -10 69 -6 41 5 53 3 76 -15 15 -11 39 -21 53
-21 15 0 35 -9 44 -21 11 -12 25 -18 34 -14 9 3 19 2 22 -2 3 -4 26 -15 51
-23 26 -9 45 -21 45 -30 0 -8 4 -21 9 -29 5 -8 4 -16 -5 -22 -10 -6 -6 -11 16
-19 23 -9 26 -13 15 -20 -12 -8 -11 -10 5 -11 25 -1 -40 -27 -71 -28 -12 -1
-26 -11 -32 -26 -8 -17 -20 -25 -36 -25 -13 0 -29 -7 -36 -15 -11 -13 -5 -15
49 -15 l61 0 -6 -29 -6 -29 73 -6 c41 -4 93 -7 117 -7 23 0 42 -4 42 -9 0 -6
-17 -10 -37 -10 -59 0 -27 -15 37 -17 33 -1 68 -7 79 -12 15 -8 23 -7 35 4 8
8 25 15 38 14 21 0 20 -2 -9 -16 -33 -16 -43 -33 -22 -33 6 0 9 -7 5 -15 -3
-8 0 -15 7 -15 7 0 4 -5 -6 -11 -13 -7 -22 -7 -31 0 -9 8 -22 8 -45 0 -27 -9
-40 -8 -73 7 -45 20 -90 22 -143 4 -24 -8 -33 -15 -25 -20 9 -6 9 -9 -1 -14
-8 -3 1 -3 19 0 17 3 32 2 32 -3 0 -5 13 -8 30 -5 16 2 28 9 27 16 -1 6 7 10
18 8 11 -2 61 -7 110 -10 83 -7 94 -6 135 16 41 22 43 22 27 4 -19 -21 -8 -40
16 -25 17 11 36 12 42 3 3 -4 -9 -13 -25 -20 -17 -7 -30 -17 -30 -22 0 -10 30
-3 74 18 39 19 43 18 48 -11 4 -17 -2 -33 -18 -50 -20 -21 -21 -25 -6 -25 19
0 61 26 78 49 10 13 13 13 27 0 13 -13 9 -17 -34 -32 -27 -10 -49 -22 -49 -27
0 -5 6 -7 13 -5 6 3 26 1 42 -4 28 -9 29 -9 5 -10 l-25 -2 25 -14 c25 -14 17
-20 -23 -15 -20 2 -49 -18 -42 -30 2 -4 -7 -5 -20 -2 -14 2 -40 -3 -59 -12
-19 -9 -39 -16 -44 -16 -6 0 -14 -4 -17 -10 -3 -5 13 -3 36 5 50 18 46 18 46
1 0 -8 -5 -12 -12 -10 -6 3 -24 -8 -40 -24 -17 -16 -39 -34 -50 -40 -18 -10
-16 -11 15 -12 l35 0 -30 -20 c-38 -25 -24 -25 56 -1 35 11 108 26 161 35 108
18 142 29 154 47 5 9 2 10 -9 6 -25 -9 -27 15 -3 42 22 25 21 25 -29 5 -9 -4
-15 -3 -14 2 0 5 -2 19 -6 31 -7 22 -8 22 -39 7 l-31 -16 26 25 c14 13 36 28
50 32 22 7 23 7 9 -10 -14 -17 -13 -17 5 -8 26 13 83 26 70 16 -5 -4 -16 -18
-23 -31 -10 -18 -10 -22 3 -22 8 0 15 5 15 10 0 6 5 10 10 10 20 0 91 53 80
60 -6 4 1 12 16 19 15 6 29 9 32 6 3 -3 0 -5 -6 -5 -6 0 -9 -7 -6 -15 5 -13
11 -12 39 5 42 26 57 25 25 -1 -14 -12 -23 -23 -20 -24 3 -2 1 -7 -4 -12 -5
-5 -6 -3 -2 4 5 9 2 11 -10 6 -12 -4 -14 -8 -5 -11 9 -3 5 -12 -11 -30 -15
-17 0 -9 46 22 66 45 93 53 66 21 -10 -13 -7 -17 21 -29 31 -13 37 -13 67 5
43 25 128 35 149 18 13 -11 18 -10 30 6 15 19 15 19 10 -3 -5 -23 -5 -23 19
-7 14 9 29 13 34 10 6 -3 10 -2 10 4 0 14 33 1 43 -16 7 -11 12 -11 23 -2 11
9 14 8 14 -4 0 -17 57 -29 67 -14 3 6 8 6 12 0 10 -17 61 -25 61 -11 0 7 8 0
18 -15 9 -15 28 -30 42 -34 14 -3 40 -14 58 -25 18 -11 41 -18 51 -15 10 2 25
1 34 -4 10 -6 17 -4 21 7 4 9 2 13 -5 8 -6 -4 -15 0 -20 7 -4 8 -16 14 -25 14
-10 0 -19 6 -22 14 -3 8 0 11 7 7 6 -4 11 -3 11 2 0 5 -9 12 -20 15 -24 6 -26
20 -5 41 23 23 18 36 -13 30 -47 -9 -67 19 -82 115 -12 77 -16 87 -55 127 -48
51 -81 57 -95 19 -6 -16 -26 -33 -52 -45 -64 -29 -122 -25 -258 16 -30 9 -64
17 -75 18 -24 1 -56 26 -49 38 4 6 -34 11 -62 7 -4 0 -11 5 -16 13 -7 9 -11
10 -14 2 -4 -9 -13 -8 -35 3 -35 18 -33 28 3 14 15 -6 31 -5 42 1 15 8 17 8
11 -2 -5 -9 -4 -11 3 -6 7 4 12 13 12 20 0 6 16 18 36 25 19 7 33 15 31 18 -3
2 -22 -3 -42 -11 -47 -20 -51 -20 -34 1 8 10 9 14 2 10 -6 -4 -15 -2 -18 4 -4
5 -14 8 -22 5 -8 -3 -11 -1 -8 4 3 5 25 8 48 6 23 -2 34 -2 25 1 -18 5 -46 33
-32 33 4 0 -2 11 -14 23 -17 18 -19 24 -8 24 8 0 13 -3 11 -7 -2 -4 7 -13 20
-20 14 -7 25 -17 25 -22 0 -4 5 -8 11 -8 5 0 7 6 3 13 -4 6 1 5 12 -5 10 -9
31 -16 46 -15 23 2 25 4 14 17 -17 20 -69 110 -63 110 2 0 18 -23 35 -51 18
-27 35 -48 40 -45 4 2 9 -6 10 -20 1 -18 -3 -24 -18 -24 -10 0 -21 -4 -24 -9
-3 -5 12 -4 34 1 24 6 40 16 40 25 0 10 6 13 18 8 25 -10 25 -10 55 5 17 8 26
19 22 28 -4 10 4 13 33 10 35 -3 39 0 70 46 17 26 32 43 32 37 0 -18 28 -1 34
22 3 12 8 18 12 14 4 -4 13 -2 20 4 17 14 29 -29 20 -74 -5 -25 -4 -29 6 -19
7 7 21 12 33 12 23 0 45 17 45 35 0 7 -12 10 -29 7 -27 -4 -29 -2 -24 19 8 32
38 60 57 53 11 -4 15 1 13 22 -1 15 4 29 11 31 8 3 12 -1 10 -12 -2 -10 3 -20
10 -22 6 -3 12 0 12 6 0 6 4 11 10 11 13 0 1 -32 -19 -49 -14 -12 -14 -13 2
-7 10 3 23 6 28 6 5 0 9 7 9 16 0 8 4 13 9 10 5 -3 21 6 35 19 15 14 36 25 47
25 10 0 19 6 19 13 0 8 11 19 25 25 14 7 28 18 31 26 3 8 12 12 20 9 8 -3 20
0 28 6 11 9 15 7 21 -6 5 -10 7 -22 6 -28 -1 -5 7 -1 19 10 24 22 47 28 56 14
3 -5 10 -6 16 -3 8 5 9 1 5 -12 -7 -18 -6 -18 7 -1 8 10 20 15 30 11 11 -4 16
-1 16 10 0 21 9 20 26 -1 11 -14 15 -15 22 -5 9 13 92 19 111 8 6 -4 11 -4 11
-1 0 11 -24 30 -37 30 -21 0 -17 19 6 30 12 5 19 15 17 22 -3 7 1 10 8 7 10
-4 12 2 8 22 -4 20 -2 25 8 19 10 -6 12 -2 7 16 l-6 24 20 -24 c10 -13 19 -37
20 -55 l0 -31 12 25 c6 14 15 28 20 31 5 4 12 21 16 38 3 18 9 31 12 29 3 -2
14 4 24 12 17 13 18 13 10 0 -4 -8 -15 -23 -24 -34 -15 -17 -15 -18 4 -15 11
2 25 15 31 27 10 20 12 21 18 6 4 -10 -1 -25 -10 -35 -16 -18 -16 -19 4 -19
12 0 22 5 22 11 0 6 9 22 20 36 16 21 20 22 20 8 0 -13 4 -15 13 -8 6 6 27 13
46 17 32 6 33 5 18 -12 -9 -9 -13 -22 -9 -27 9 -12 45 -13 53 -2 4 5 15 7 25
5 16 -3 13 -9 -20 -45 -21 -24 -42 -40 -47 -37 -5 3 -9 1 -9 -5 0 -10 -38 -27
-52 -23 -5 1 -8 -2 -8 -8 0 -31 91 21 138 80 14 18 25 21 45 16 18 -4 24 -11
21 -21 -5 -11 1 -15 22 -16 18 0 8 -5 -29 -13 -50 -11 -98 -35 -72 -36 6 -1
-17 -14 -50 -30 -49 -23 -55 -28 -34 -29 37 -1 95 25 114 51 11 16 18 19 23
11 5 -8 22 -10 52 -5 l45 7 -40 6 -40 7 39 -2 c64 -2 54 -22 -14 -30 -48 -6
-60 -10 -58 -23 2 -13 -11 -20 -54 -31 -32 -8 -58 -18 -58 -23 0 -5 -10 -9
-22 -9 -35 0 -11 -13 33 -17 32 -3 39 -1 33 9 -5 9 -3 9 10 -1 17 -14 17 -15
-5 -23 -13 -5 -35 -6 -49 -3 -22 5 -31 1 -44 -20 -10 -16 -26 -25 -42 -25 -37
0 -50 -9 -140 -98 -71 -71 -86 -81 -127 -87 -30 -5 -58 -3 -76 5 -39 16 -68 5
-92 -33 -29 -49 -24 -104 16 -179 28 -54 33 -70 25 -94 -4 -16 -9 -25 -9 -21
-1 5 -8 1 -17 -7 -8 -9 -21 -13 -27 -10 -8 5 -8 2 0 -7 7 -7 13 -21 13 -32 0
-10 4 -15 10 -12 6 3 7 -1 4 -10 -7 -17 14 -67 25 -61 4 3 6 -17 6 -42 0 -51
18 -74 23 -29 2 15 8 27 13 27 5 0 9 5 9 11 0 5 -6 7 -12 3 -7 -4 -1 4 15 19
15 15 27 37 27 52 0 15 6 25 14 25 20 0 31 21 16 30 -8 5 -9 13 -4 21 5 8 7
24 5 36 -2 17 1 21 13 17 9 -3 16 -1 16 6 0 6 5 8 10 5 6 -3 10 -2 10 4 0 5 7
11 16 13 13 2 12 7 -7 27 l-22 23 32 -7 c32 -7 46 10 14 18 -12 3 -8 5 9 6 15
0 30 6 33 11 3 6 19 10 36 10 23 0 29 4 29 23 0 13 9 26 23 33 108 52 152 84
113 84 -8 0 -16 7 -20 15 -3 9 0 15 10 15 9 0 25 11 36 25 12 15 30 25 46 25
15 0 34 5 42 10 13 8 12 10 -4 10 -15 0 -16 3 -6 15 7 8 29 15 50 15 20 0 40
3 44 7 9 10 33 14 96 18 30 2 73 10 95 18 40 15 40 16 10 17 l-30 2 27 9 c25
10 26 11 10 30 -11 12 -20 15 -26 9 -13 -13 -26 -13 -26 0 0 6 7 10 15 10 8 0
15 4 15 9 0 5 15 14 33 20 23 9 28 14 19 20 -10 6 -2 10 25 15 80 14 93 18 87
27 -3 5 -29 10 -57 10 -48 2 -49 2 -17 9 28 5 31 8 17 14 -21 10 -69 -1 -79
-17 -5 -8 -8 -4 -8 10 0 12 6 24 13 26 6 3 3 6 -8 7 -15 0 -11 5 15 16 44 19
86 15 82 -7 -1 -11 6 -18 20 -20 33 -6 68 1 68 13 0 6 -13 8 -32 5 -18 -3 -27
-3 -20 0 10 4 10 8 1 19 -9 11 -6 14 17 15 23 1 18 4 -21 14 l-50 13 40 2 c25
2 31 4 18 7 -26 5 -31 23 -8 23 8 0 15 4 15 9 0 5 9 13 21 16 36 12 15 15 -39
6 -41 -6 -52 -5 -52 5 0 8 -8 14 -17 14 -13 0 -15 2 -5 9 7 4 27 7 45 5 37 -3
107 13 107 24 0 5 -16 6 -36 4 -26 -3 -35 -1 -30 7 4 6 16 11 28 11 16 0 18 3
9 14 -6 7 -23 11 -39 9 -21 -4 -24 -2 -12 6 8 6 26 11 40 11 17 0 21 3 12 9
-9 5 0 10 29 14 23 3 49 13 58 22 15 15 13 15 -28 0 -38 -13 -42 -13 -31 0 10
13 9 15 -11 15 l-24 1 24 13 c18 10 30 11 41 4 12 -8 26 -6 51 5 19 8 56 18
82 22 34 4 47 10 44 20 -3 7 0 18 6 24 18 18 -14 13 -58 -9 -37 -19 -91 -37
-140 -46 -11 -2 -33 -6 -50 -10 -27 -5 -27 -4 10 15 21 12 45 21 52 21 6 0 15
5 19 11 4 8 -1 9 -17 4 -13 -3 -4 6 21 21 25 15 56 36 69 46 13 10 29 18 35
18 6 0 2 -6 -9 -12 -19 -11 -19 -11 0 -18 14 -5 7 -10 -31 -20 l-49 -14 37 -4
c24 -2 71 8 125 26 49 17 113 33 143 36 l55 6 -48 -20 c-27 -11 -53 -17 -59
-14 -7 5 -8 2 -3 -6 6 -10 4 -12 -8 -7 -10 4 -16 2 -14 -5 1 -6 -9 -17 -23
-25 l-25 -13 27 0 c15 0 47 6 70 14 24 8 59 17 78 21 19 4 40 11 46 16 19 15
86 40 79 30 -6 -11 12 -15 50 -13 13 1 8 -5 -16 -18 -19 -10 -41 -25 -47 -33
-10 -12 -4 -13 40 -10 63 5 98 20 91 39 -3 8 -1 14 4 14 5 0 8 12 7 28 -1 24
-5 27 -34 24 -28 -2 -31 0 -20 13 10 12 10 15 -4 15 -27 0 -18 15 17 29 l32
13 -29 13 -29 12 23 13 24 13 -35 12 c-21 7 -41 8 -52 3 -10 -5 -23 -7 -30 -4
-9 3 -9 5 1 5 6 1 12 7 12 14 0 6 19 21 42 32 38 18 40 20 18 24 -25 3 -25 3
4 15 27 11 28 13 12 28 -20 20 -11 28 54 45 28 7 47 8 51 2 4 -7 22 -6 50 0
24 5 62 12 84 15 l40 5 -35 -19 c-19 -10 -54 -22 -78 -26 -31 -5 -42 -10 -38
-20 3 -8 -1 -14 -8 -14 -7 0 -19 -7 -26 -15 -10 -12 -9 -16 4 -21 9 -3 14 -10
11 -14 -3 -4 5 -10 17 -14 22 -5 22 -6 3 -20 -11 -9 -35 -16 -54 -16 -19 0
-32 -3 -28 -6 3 -3 28 -6 56 -6 28 1 51 -3 51 -8 0 -4 -16 -18 -36 -30 -19
-12 -33 -25 -30 -27 3 -3 16 2 30 10 24 16 25 16 28 -16 3 -28 7 -32 36 -35
28 -3 31 -6 21 -18 -9 -11 -7 -14 10 -14 12 0 20 4 17 8 -2 4 11 8 30 8 20 0
39 6 45 15 8 12 10 12 19 -1 19 -29 13 -33 -67 -45 -42 -7 -60 -25 -25 -25 14
0 15 -2 2 -10 -20 -13 -7 -22 34 -23 22 -1 36 -6 36 -14 0 -9 -17 -13 -52 -14
-53 -1 -53 -1 -18 -11 19 -5 44 -14 55 -18 17 -7 15 -9 -12 -9 -17 -1 -35 -6
-38 -11 -5 -8 -11 -8 -20 0 -19 16 -95 9 -130 -12 -33 -20 -30 -23 8 -9 46 18
37 -2 -12 -25 -26 -13 -54 -31 -62 -40 -13 -16 -12 -16 7 -6 19 10 193 42 230
42 9 0 14 -6 11 -13 -3 -8 -1 -20 3 -27 7 -11 14 -11 42 0 43 18 43 17 28 35
-12 14 1 17 65 15 3 0 19 7 37 16 28 15 30 15 25 0 -4 -10 -1 -16 8 -16 19 0
28 17 13 23 -10 4 -10 6 0 6 14 1 51 40 52 54 0 4 -7 7 -15 7 -17 0 -20 16 -5
25 16 10 12 22 -10 28 -13 3 -18 11 -14 20 3 9 -4 25 -16 37 -16 16 -19 25
-10 35 13 16 2 24 -44 36 l-31 7 35 1 c38 1 73 19 54 27 -15 6 -6 44 10 44 6
0 3 5 -6 11 -20 11 -24 49 -8 65 8 8 6 15 -5 24 -19 16 -20 40 -1 40 7 0 19 6
25 14 10 12 8 17 -8 26 -13 7 -21 21 -21 38 0 15 -11 40 -25 56 -14 16 -25 34
-25 39 0 6 -3 7 -7 4 -10 -10 -32 13 -27 28 6 16 -6 24 -39 27 -17 2 -23 7
-20 19 4 15 0 17 -26 13 -24 -4 -31 -2 -31 11 0 18 -37 54 -56 55 -6 0 -21 11
-34 25 -13 14 -32 25 -41 25 -10 0 -23 9 -29 21 -7 11 -14 18 -17 15 -3 -3
-12 2 -18 11 -9 12 -25 16 -55 15 -37 -3 -42 -1 -31 12 10 12 8 15 -11 18 -13
2 -22 9 -20 16 2 11 -44 37 -60 34 -4 -1 -12 7 -18 18 -10 18 -13 19 -33 6
-12 -8 -33 -17 -47 -20 l-25 -7 23 17 22 17 -24 12 c-13 7 -36 10 -51 7 -26
-5 -27 -3 -21 22 5 19 3 26 -8 26 -7 0 -36 18 -62 40 -27 22 -54 40 -60 40
-15 0 -24 23 -24 62 0 21 9 38 30 56 17 15 30 36 30 50 0 39 29 70 81 87 82
28 130 88 74 93 -14 1 -41 9 -61 17 -20 8 -40 12 -45 9 -5 -3 -9 0 -9 5 0 6
-11 11 -24 11 -44 0 -39 20 19 74 47 43 54 54 40 60 -9 3 -22 3 -28 -1 -7 -4
-6 1 2 10 7 9 11 23 8 31 -4 11 -1 13 10 9 12 -5 14 -3 8 7 -6 9 -4 12 6 8 16
-6 65 9 56 18 -3 3 -14 1 -24 -4 -11 -6 -25 -7 -32 -2 -11 6 -9 12 8 26 19 16
47 55 39 54 -2 -1 -21 -10 -43 -22z m-1135 -388 c0 -28 -4 -40 -14 -40 -8 0
-17 -5 -19 -10 -6 -12 -3 2 14 53 7 20 14 37 16 37 1 0 3 -18 3 -40z m131 2
c-5 -10 -17 -24 -25 -32 -9 -7 -16 -16 -16 -21 0 -4 -10 -25 -22 -45 -12 -21
-23 -44 -24 -53 -2 -14 -37 -133 -59 -196 l-7 -20 17 20 c9 11 23 45 31 75 9
30 19 66 24 80 7 22 9 22 9 4 1 -32 14 -37 33 -12 31 41 21 -4 -14 -58 -32
-51 -81 -154 -76 -160 2 -2 20 11 39 29 20 18 62 56 94 85 33 28 61 52 63 52
2 0 17 9 33 21 16 11 29 17 29 12 0 -4 5 0 11 10 5 9 17 17 25 17 8 0 24 9 36
20 38 35 50 21 14 -15 -20 -19 -40 -35 -45 -35 -5 0 -24 -16 -42 -35 -18 -18
-36 -32 -39 -30 -4 3 -15 -4 -24 -14 -32 -35 19 -17 96 35 88 59 115 74 136
74 13 0 12 -3 -4 -15 -10 -8 -26 -15 -34 -15 -8 0 -21 -9 -28 -21 -13 -20 -12
-20 31 -14 36 6 44 4 44 -9 0 -9 -2 -14 -5 -11 -7 6 -56 -21 -73 -41 -13 -16
-12 -16 18 -1 17 9 34 21 38 26 3 6 11 8 18 5 7 -2 26 9 41 25 28 29 28 30 5
24 -20 -5 -18 -1 11 20 37 27 105 67 115 67 13 0 -8 -22 -29 -30 -13 -5 -38
-27 -55 -49 -28 -35 -30 -41 -14 -42 11 0 7 -5 -12 -11 -16 -6 -44 -21 -62
-34 -18 -14 -36 -24 -40 -23 -21 3 -51 -17 -88 -59 -40 -45 -40 -45 -12 -40
15 3 27 4 27 3 0 -2 -28 -18 -62 -35 -86 -44 -165 -98 -172 -115 -6 -18 -36
-20 -36 -3 0 7 -11 -4 -25 -23 -23 -32 -73 -90 -120 -143 -23 -25 -105 -32
-105 -8 0 7 -4 11 -9 7 -5 -3 -12 -1 -15 3 -5 8 -28 11 -86 14 -8 0 -35 7 -59
15 -24 7 -51 11 -58 9 -8 -3 -27 1 -44 9 -16 9 -29 11 -29 6 0 -16 -34 -7 -52
14 -17 20 -17 20 -13 -3 l4 -23 -30 21 c-27 20 -42 39 -19 25 6 -3 10 -1 10 5
0 6 -8 10 -18 8 -22 -4 -76 56 -86 95 -4 15 -11 25 -16 22 -5 -3 -7 0 -4 8 3
8 1 18 -5 22 -16 10 -13 25 4 19 10 -4 13 0 10 15 -2 12 -7 27 -11 34 -4 6 11
-5 34 -27 37 -36 40 -37 37 -15 -1 13 -6 32 -10 41 -10 25 33 12 69 -21 l29
-26 -13 25 c-16 30 -41 50 -54 43 -5 -4 -6 -1 -2 6 4 6 0 23 -8 36 -9 14 -12
25 -7 25 6 0 14 -7 19 -16 6 -11 11 -13 16 -5 4 6 16 11 28 11 15 0 19 5 16
18 -6 21 18 48 25 29 12 -29 5 42 -7 76 l-14 38 44 -36 c24 -20 44 -34 44 -31
0 12 -5 21 -12 19 -3 -1 -9 5 -12 14 -6 14 -3 14 19 -1 33 -22 61 -6 45 24 -6
10 -10 40 -9 67 l1 48 13 -50 c20 -83 24 -84 18 -5 -6 89 -6 80 -3 105 1 14 3
16 7 6 4 -10 9 -8 19 10 14 24 14 23 7 -6 -13 -50 -6 -137 16 -190 18 -45 20
-47 20 -20 1 17 -6 43 -14 59 -9 18 -12 33 -7 38 6 6 14 -3 20 -21 15 -43 26
-39 19 8 -2 21 -1 45 4 52 5 8 9 10 9 4 5 -72 9 -107 14 -112 3 -4 6 3 6 15 0
11 4 24 10 27 5 3 10 -4 9 -17 0 -13 5 -48 12 -78 l12 -54 13 34 c7 19 13 46
13 59 1 13 4 21 7 18 4 -4 7 -42 7 -84 -1 -43 1 -68 4 -55 2 12 11 35 19 50
13 26 14 25 14 -30 0 -52 15 -87 24 -56 16 54 15 53 30 32 16 -21 13 -25 29
51 3 14 5 12 6 -7 0 -16 5 -28 10 -28 4 0 6 -12 4 -27 l-4 -28 14 24 c8 14 12
32 9 40 -3 8 -1 12 5 8 12 -7 57 86 78 166 9 31 20 57 24 57 4 0 15 17 25 38
10 20 24 47 32 60 18 27 39 31 25 4z m-2 -56 c-18 -30 -35 -54 -36 -52 -7 6
17 57 37 78 11 12 20 26 20 32 0 5 3 7 6 3 3 -3 -9 -30 -27 -61z m40 -6 c-13
-16 -25 -28 -27 -25 -5 5 37 55 45 55 2 0 -6 -13 -18 -30z m-502 -22 c-3 -8
-6 -5 -6 6 -1 11 2 17 5 13 3 -3 4 -12 1 -19z m324 -19 l-10 -24 0 26 c-1 14
2 29 6 33 12 12 14 -9 4 -35z m197 19 c-8 -12 -21 -24 -29 -26 -8 -3 -3 7 10
22 30 32 39 34 19 4z m42 -55 c-1 -20 -110 -118 -110 -99 0 4 21 29 46 56 44
47 64 60 64 43z m90 4 c0 -2 -21 -19 -47 -37 -54 -38 -124 -96 -165 -137 -16
-15 -28 -22 -28 -16 0 15 49 73 59 70 4 -1 36 21 71 48 71 56 110 81 110 72z
m189 0 c-2 -1 -13 -9 -24 -17 -19 -14 -19 -14 -6 3 7 9 18 17 24 17 6 0 8 -1
6 -3z m-812 -29 c-3 -8 -6 -5 -6 6 -1 11 2 17 5 13 3 -3 4 -12 1 -19z m252
-42 c-9 -8 -10 -5 -5 14 3 14 6 32 7 40 1 8 4 2 6 -14 3 -16 -1 -34 -8 -40z
m547 35 c-6 -9 -46 -22 -46 -15 0 3 10 9 23 14 29 11 29 11 23 1z m124 -16
c-7 -9 -15 -13 -19 -10 -3 3 1 10 9 15 21 14 24 12 10 -5z m66 -14 c-15 -16
-15 -19 -1 -24 8 -4 22 -4 30 -1 8 4 15 2 15 -3 0 -12 -107 -39 -116 -30 -4 3
-20 -1 -36 -9 -17 -9 -28 -18 -25 -21 9 -9 108 -5 120 5 22 18 160 72 166 66
3 -4 1 -9 -5 -11 -7 -2 -40 -26 -74 -53 -34 -28 -67 -50 -74 -50 -8 0 -19 -7
-26 -15 -15 -18 -10 -18 24 -5 17 6 26 6 26 0 0 -6 -7 -10 -16 -10 -9 0 -34
-10 -55 -22 -30 -17 -42 -19 -51 -10 -9 9 -7 16 10 32 11 11 26 20 32 20 6 0
28 12 48 26 29 21 32 24 12 19 -14 -4 -26 -12 -28 -16 -2 -5 -15 -9 -28 -9
-14 0 -27 -7 -30 -15 -4 -9 -13 -13 -23 -10 -9 3 -41 -6 -70 -21 -51 -24 -86
-28 -41 -4 12 6 19 14 16 17 -3 3 -26 -7 -51 -21 -25 -15 -45 -23 -45 -19 1 9
82 63 113 76 10 4 21 16 24 27 3 11 12 20 19 20 8 0 17 7 20 15 4 8 14 15 24
15 18 0 60 39 44 41 -8 1 39 15 60 18 5 0 1 -7 -8 -18z m169 -121 c-4 -6 9
-10 32 -10 l38 -1 -38 -14 c-46 -16 -57 -25 -31 -25 15 -1 16 -2 4 -9 -8 -5
-26 -12 -39 -16 -17 -5 -22 -4 -16 5 6 10 -1 11 -29 6 -21 -4 -44 -10 -52 -13
-22 -8 -16 14 8 31 12 9 18 16 13 16 -23 0 18 24 52 30 56 11 65 11 58 0z
m-1018 -47 c-3 -10 -5 -2 -5 17 0 19 2 27 5 18 2 -10 2 -26 0 -35z m743 13 c0
-2 -7 -7 -16 -10 -8 -3 -12 -2 -9 4 6 10 25 14 25 6z m110 -56 c-10 -7 1 -8
35 -4 28 4 46 3 42 -2 -10 -10 -138 -24 -151 -16 -10 6 47 30 74 31 13 1 13 0
0 -9z m-3742 -58 c2 -7 -2 -10 -12 -6 -9 3 -16 11 -16 16 0 13 23 5 28 -10z
m1447 -180 c3 -3 5 3 6 14 0 18 1 18 9 -1 6 -13 7 3 5 45 -2 36 0 57 4 47 4
-10 11 -19 16 -20 6 -1 9 -14 7 -29 -2 -15 2 -36 8 -45 9 -15 10 -13 5 12 -5
28 -4 29 10 11 14 -19 15 -18 16 20 l1 39 10 -42 c10 -48 31 -59 28 -15 -5 67
3 61 21 -18 28 -126 34 -174 22 -167 -7 5 -9 0 -6 -13 3 -11 9 -17 14 -14 5 3
9 -4 9 -16 0 -12 -4 -19 -9 -16 -5 3 -8 -5 -8 -19 0 -26 -26 -59 -38 -47 -3 4
-4 -5 0 -19 7 -28 -20 -73 -37 -62 -5 3 -8 -1 -7 -8 4 -24 -12 -49 -31 -49
-12 0 -20 -10 -24 -31 -3 -17 -10 -28 -16 -24 -5 3 -10 -3 -10 -14 0 -11 -7
-26 -15 -34 -8 -8 -11 -17 -8 -21 4 -3 1 -6 -6 -6 -7 0 -10 -4 -7 -9 8 -13 -4
-42 -15 -36 -4 3 -11 -10 -15 -30 -5 -26 -13 -37 -30 -41 -13 -3 -24 -12 -24
-19 0 -8 -9 -10 -26 -7 -19 3 -25 1 -20 -7 5 -7 -6 -11 -36 -11 -116 0 -408
-57 -408 -80 0 -4 -18 -13 -40 -20 -22 -7 -47 -21 -56 -32 -10 -10 -31 -18
-48 -18 -17 -1 -49 -10 -71 -21 l-40 -20 38 6 c20 3 37 2 37 -3 0 -5 12 -8 28
-5 23 3 24 2 7 -6 -11 -5 -33 -10 -48 -10 -16 -1 -37 -6 -47 -11 -27 -14 -123
-15 -128 -1 -2 6 -12 11 -23 11 -24 0 -25 26 -1 39 15 9 14 10 -7 11 -24 0
-24 0 -5 15 19 14 19 14 -1 15 -17 1 -17 3 5 12 14 7 43 20 65 31 22 11 54 23
70 27 25 7 20 8 -27 9 -56 1 -76 14 -40 25 10 4 42 8 70 11 29 2 63 7 75 10
68 18 97 29 97 37 0 9 -41 7 -140 -7 -35 -5 -42 -4 -30 5 11 8 -3 10 -60 5
-41 -4 -84 -9 -95 -11 -18 -4 -18 -4 -3 6 10 6 42 14 70 17 29 3 56 10 59 16
5 6 17 6 37 -1 25 -9 33 -7 47 8 16 18 16 18 -7 14 -22 -4 -22 -4 2 7 14 6 42
8 62 6 27 -4 41 0 53 13 15 16 15 18 0 24 -9 3 -44 7 -78 7 -52 1 -56 3 -27 8
36 7 53 7 133 -5 32 -4 47 -3 47 5 0 6 -12 12 -27 12 -24 2 -25 2 -5 6 12 2
22 9 22 14 0 6 20 8 48 5 26 -2 41 -2 34 1 -24 10 -1 22 24 13 33 -13 47 -13
39 0 -3 6 -15 10 -25 10 -10 0 -22 5 -26 12 -5 8 4 9 35 4 l42 -6 -17 25 c-16
24 -16 25 2 19 18 -5 18 -5 0 10 -11 9 -25 16 -32 16 -15 0 -39 28 -31 36 3 4
13 -1 22 -10 9 -9 22 -16 28 -16 13 0 -32 40 -76 67 -15 10 -27 21 -27 25 0 5
11 1 25 -8 34 -22 32 0 -2 24 -52 35 -60 39 -43 17 13 -17 13 -18 0 -10 -25
14 -50 38 -50 48 0 6 5 6 13 0 17 -15 91 -27 83 -14 -4 5 1 14 11 19 13 8 26
2 58 -23 22 -18 46 -30 53 -28 7 3 28 -9 48 -26 42 -38 52 -39 29 -5 -16 25
-16 25 6 14 19 -11 21 -10 16 4 -7 19 -6 19 29 6 21 -8 29 -8 36 2 6 10 8 10
8 1 0 -7 5 -13 11 -13 6 0 8 8 5 18 -3 9 5 4 19 -13 13 -16 27 -27 30 -23 9 8
-13 96 -31 124 -15 22 -15 24 -1 18 14 -5 15 -1 7 25 -4 17 -12 36 -16 43 -4
7 10 -6 32 -29 22 -24 43 -43 47 -43 3 0 5 12 2 28 -13 84 -14 123 -4 116 6
-4 15 -1 19 7 6 8 11 -1 16 -27 4 -21 13 -48 20 -59 17 -23 19 -3 3 26 -6 12
-7 28 -3 37 5 13 10 7 20 -23 11 -34 13 -36 15 -15 3 34 3 33 -4 135 -4 67 -3
83 4 63 16 -43 26 -33 34 35 l8 62 18 -99 c10 -54 21 -101 24 -104z m-1378
155 c4 -7 0 -8 -11 -4 -10 4 -22 7 -27 7 -5 0 -9 4 -9 9 0 12 38 2 47 -12z
m1380 -104 c-3 -10 -5 -4 -5 12 0 17 2 24 5 18 2 -7 2 -21 0 -30z m2828 7 c-8
-13 1 -13 44 0 19 5 37 8 39 5 2 -2 -21 -11 -51 -20 -30 -9 -61 -22 -67 -30
-14 -17 -35 -21 -25 -5 9 14 -19 12 -33 -2 -9 -9 -12 -9 -12 0 0 6 17 18 38
27 20 8 44 19 52 24 20 13 22 13 15 1z m-2636 -115 l0 -20 -8 20 c-5 11 -11
38 -14 60 l-6 40 14 -40 c7 -22 14 -49 14 -60z m-342 63 c-3 -8 -6 -5 -6 6 -1
11 2 17 5 13 3 -3 4 -12 1 -19z m2939 -44 c-30 -21 -45 -16 -16 6 14 10 27 16
30 13 3 -2 -4 -11 -14 -19z m-66 -3 c0 -5 -7 -12 -16 -15 -14 -5 -15 -4 -4 9
14 17 20 19 20 6z m-60 -41 c-24 -19 -40 -25 -40 -15 0 5 51 34 60 34 3 0 -6
-8 -20 -19z m105 0 c-3 -5 -12 -10 -20 -10 -7 0 -27 -11 -43 -25 -17 -14 -33
-25 -38 -25 -4 0 1 7 12 15 18 13 18 14 -6 8 l-25 -5 23 17 c36 27 110 46 97
25z m-2555 -21 c0 -5 -4 -9 -10 -9 -5 0 -10 7 -10 16 0 8 5 12 10 9 6 -3 10
-10 10 -16z m2405 -25 c-36 -28 -61 -36 -30 -10 17 14 35 26 40 26 6 -1 1 -8
-10 -16z m205 -4 c-19 -11 -42 -19 -50 -19 -8 0 3 9 25 19 53 24 70 24 25 0z
m-70 -24 c0 -2 -7 -7 -16 -10 -8 -3 -12 -2 -9 4 6 10 25 14 25 6z m-182 -35
c-18 -16 -35 -27 -38 -24 -6 5 50 53 63 53 4 0 -7 -13 -25 -29z m142 14 c0 -6
-56 -35 -67 -35 -4 0 6 9 22 20 29 19 45 25 45 15z m-105 -45 c-3 -5 -11 -10
-16 -10 -6 0 -7 5 -4 10 3 6 11 10 16 10 6 0 7 -4 4 -10z m-2842 -30 c3 -11 1
-18 -4 -14 -5 3 -9 12 -9 20 0 20 7 17 13 -6z m3349 1 c-3 -9 -10 -19 -16 -23
-19 -13 -110 -8 -130 7 -17 13 -17 14 10 20 16 4 34 8 39 9 6 2 31 3 57 3 39
1 46 -2 40 -16z m-317 -1 c-3 -5 -11 -10 -16 -10 -6 0 -7 5 -4 10 3 6 11 10
16 10 6 0 7 -4 4 -10z m-255 -20 c-20 -13 -33 -13 -25 0 3 6 14 10 23 10 15 0
15 -2 2 -10z m220 6 c0 -2 -12 -12 -27 -21 l-28 -18 19 21 c17 20 36 29 36 18z
m-285 -16 c6 -9 -62 -48 -97 -55 -27 -6 -22 11 10 33 44 31 76 39 87 22z
m-2328 -32 c-3 -8 -6 -5 -6 6 -1 11 2 17 5 13 3 -3 4 -12 1 -19z m2433 18 c0
-2 -16 -13 -35 -25 -32 -19 -34 -19 -23 -1 7 10 15 17 19 14 4 -2 10 0 14 6 6
10 25 14 25 6z m477 -12 c-3 -3 -12 -4 -19 -1 -8 3 -5 6 6 6 11 1 17 -2 13 -5z
m187 -43 c3 -5 -4 -11 -17 -15 -33 -9 -57 -7 -57 3 0 17 65 27 74 12z m-3810
-37 c9 -8 16 -18 16 -20 0 -7 -38 15 -45 26 -10 16 12 12 29 -6z m3381 6 c-3
-5 -11 -10 -16 -10 -6 0 -7 5 -4 10 3 6 11 10 16 10 6 0 7 -4 4 -10z m-3542
-17 c-7 -2 -19 -2 -25 0 -7 3 -2 5 12 5 14 0 19 -2 13 -5z m97 -13 c12 -8 11
-10 -5 -9 -11 1 -33 5 -50 9 l-30 8 35 1 c19 0 42 -4 50 -9z m3573 -10 c-18
-11 -39 -17 -46 -14 -7 2 -30 -2 -50 -11 -46 -19 -49 -12 -4 9 47 21 89 34
112 35 15 1 13 -4 -12 -19z m427 3 c21 -6 16 -8 -30 -19 -30 -7 -56 -11 -58
-10 -1 2 0 11 4 20 6 17 41 21 84 9z m-3944 -70 c-8 -8 -36 5 -36 17 0 7 6 7
21 0 11 -7 18 -14 15 -17z m3539 -3 c-3 -5 -11 -10 -16 -10 -6 0 -7 5 -4 10 3
6 11 10 16 10 6 0 7 -4 4 -10z m395 -30 c0 -5 -24 -10 -54 -10 -30 0 -56 -5
-58 -10 -5 -15 -78 -25 -78 -11 0 6 6 12 13 12 13 2 29 4 97 18 64 12 80 12
80 1z m-574 -39 c-18 -19 -70 -36 -59 -19 4 8 59 36 72 38 2 0 -4 -9 -13 -19z
m181 13 c-3 -3 -12 -4 -19 -1 -8 3 -5 6 6 6 11 1 17 -2 13 -5z m-357 -40 c-60
-27 -84 -33 -87 -21 -2 4 0 8 5 9 4 1 32 9 62 19 77 24 84 22 20 -7z m300 -8
c0 -2 -7 -7 -16 -10 -8 -3 -12 -2 -9 4 6 10 25 14 25 6z m-413 -39 c-3 -8 -18
-17 -34 -20 l-28 -5 29 24 c29 26 43 26 33 1z m393 3 c0 -5 -8 -10 -17 -10
-15 0 -16 2 -3 10 19 12 20 12 20 0z m-285 -10 c-3 -5 -12 -10 -18 -10 -7 0
-6 4 3 10 19 12 23 12 15 0z m743 -21 c-2 -6 -7 -10 -11 -10 -4 1 -19 1 -34 2
-25 0 -26 1 -8 9 29 12 57 12 53 -1z m-1671 -51 c-3 -7 -5 -2 -5 12 0 14 2 19
5 13 2 -7 2 -19 0 -25z m1778 -28 c8 -13 -45 -13 -65 0 -11 7 -6 10 22 10 20
0 40 -4 43 -10z m-1917 -55 c-3 -3 -9 2 -12 12 -6 14 -5 15 5 6 7 -7 10 -15 7
-18z m1682 5 c-19 -12 -30 -12 -30 -1 0 10 31 20 40 14 2 -2 -2 -8 -10 -13z
m-1604 -16 c-3 -8 -2 -24 4 -33 7 -14 5 -23 -10 -36 -18 -16 -19 -16 -26 21
-5 30 -3 40 11 51 24 17 28 16 21 -3z m-83 -21 c20 -17 20 -17 13 2 -5 15 -4
17 4 9 9 -9 9 -17 1 -33 -12 -21 -12 -51 0 -61 3 -3 9 -21 12 -40 6 -31 5 -33
-7 -18 -7 10 -16 15 -19 11 -4 -3 -7 10 -7 30 0 44 -10 73 -20 58 -3 -7 -6 4
-6 24 1 40 2 41 29 18z m114 -35 c-3 -8 -6 -5 -6 6 -1 11 2 17 5 13 3 -3 4
-12 1 -19z m20 -10 c-3 -7 -5 -2 -5 12 0 14 2 19 5 13 2 -7 2 -19 0 -25z m91
-39 c-10 -5 -18 -19 -18 -29 0 -19 -17 -36 -27 -27 -8 8 36 67 50 67 7 0 4 -5
-5 -11z m-751 -21 c-3 -8 -6 -5 -6 6 -1 11 2 17 5 13 3 -3 4 -12 1 -19z m1290
16 c-3 -3 -12 -4 -19 -1 -8 3 -5 6 6 6 11 1 17 -2 13 -5z m-587 -14 c0 -5 -2
-10 -4 -10 -3 0 -8 5 -11 10 -3 6 -1 10 4 10 6 0 11 -4 11 -10z m-2580 -19 c0
-11 -40 -22 -53 -14 -5 3 -3 9 4 14 18 11 49 11 49 0z m2735 -31 c-3 -5 -14
-10 -23 -10 -15 0 -15 2 -2 10 20 13 33 13 25 0z m345 0 c0 -5 -4 -10 -10 -10
-5 0 -10 5 -10 10 0 6 5 10 10 10 6 0 10 -4 10 -10z m-103 -76 c-3 -3 -12 -4
-19 -1 -8 3 -5 6 6 6 11 1 17 -2 13 -5z m52 -47 c-15 -13 -109 -54 -109 -48 0
9 81 51 99 51 8 0 12 -2 10 -3z m-139 -27 c-36 -11 -52 -11 -45 0 3 6 21 10
38 9 31 -1 31 -1 7 -9z m0 -64 c0 -3 -4 -8 -10 -11 -5 -3 -10 -1 -10 4 0 6 5
11 10 11 6 0 10 -2 10 -4z m-1013 -22 c-3 -3 -12 -4 -19 -1 -8 3 -5 6 6 6 11
1 17 -2 13 -5z m1088 -4 c-11 -5 -31 -8 -45 -8 -23 0 -22 1 5 8 42 11 65 11
40 0z m-1909 -48 c-5 -4 -86 36 -86 43 0 3 20 -5 45 -17 24 -12 43 -23 41 -26z
m1918 -7 c-4 -8 -14 -15 -23 -16 -12 0 -12 -2 4 -8 16 -6 14 -9 -15 -14 -48
-10 -57 6 -18 31 39 25 60 28 52 7z m-144 -45 c0 -5 -10 -10 -22 -10 -19 0
-20 2 -8 10 19 13 30 13 30 0z m-1304 -87 c-11 -11 -17 4 -9 23 7 18 8 18 11
1 2 -10 1 -21 -2 -24z m-295 -41 c-7 -2 -18 1 -23 6 -8 8 -4 9 13 5 13 -4 18
-8 10 -11z m-91 -13 c12 -9 12 -10 -4 -5 -13 4 -17 2 -13 -8 4 -10 0 -12 -16
-8 -19 5 -20 3 -9 -10 10 -13 9 -15 -13 -10 -31 5 -31 9 -2 33 26 21 36 23 57
8z m-75 -117 c-3 -3 -11 0 -18 7 -9 10 -8 11 6 5 10 -3 15 -9 12 -12z m-610
-52 l20 -9 -20 0 c-11 0 -29 4 -40 9 l-20 9 20 0 c11 0 29 -4 40 -9z m395
-204 c0 -2 -7 -7 -16 -10 -8 -3 -12 -2 -9 4 6 10 25 14 25 6z m235 -26 c-28
-12 -37 -12 -30 0 3 6 16 10 28 9 21 0 21 -1 2 -9z m1140 -40 c3 -5 1 -10 -4
-10 -6 0 -11 5 -11 10 0 6 2 10 4 10 3 0 8 -4 11 -10z m-905 -10 c0 -5 -9 -14
-19 -19 -16 -9 -18 -8 -14 9 5 20 33 29 33 10z"/>
<path d="M2851 4344 c0 -11 3 -14 6 -6 3 7 2 16 -1 19 -3 4 -6 -2 -5 -13z"/>
<path d="M3264 4278 c-43 -49 -46 -61 -6 -23 23 21 42 40 42 42 0 10 -19 0
-36 -19z"/>
<path d="M2656 4277 c3 -10 9 -15 12 -12 3 3 0 11 -7 18 -10 9 -11 8 -5 -6z"/>
<path d="M3348 4260 l-33 -31 38 22 c20 11 37 25 37 30 0 15 -8 11 -42 -21z"/>
<path d="M3295 4250 c-10 -11 -13 -20 -8 -20 13 0 38 29 31 35 -3 3 -13 -4
-23 -15z"/>
<path d="M3066 4208 c-11 -35 -13 -58 -6 -53 4 3 10 18 12 35 5 30 1 41 -6 18z"/>
<path d="M3113 4185 c-9 -24 1 -27 15 -5 8 13 8 20 2 20 -6 0 -13 -7 -17 -15z"/>
<path d="M2464 4100 c0 -13 4 -16 10 -10 7 7 7 13 0 20 -6 6 -10 3 -10 -10z"/>
<path d="M2500 4032 c0 -13 27 -35 39 -30 5 1 -2 11 -15 21 -13 10 -24 14 -24
9z"/>
<path d="M1503 4035 c0 -22 2 -30 4 -17 2 12 2 30 0 40 -3 9 -5 -1 -4 -23z"/>
<path d="M1661 3924 c0 -11 3 -14 6 -6 3 7 2 16 -1 19 -3 4 -6 -2 -5 -13z"/>
<path d="M1671 3884 c0 -11 3 -14 6 -6 3 7 2 16 -1 19 -3 4 -6 -2 -5 -13z"/>
<path d="M1036 3671 c5 -5 27 -19 49 -31 29 -16 36 -18 25 -5 -13 16 -62 45
-77 45 -4 0 -3 -4 3 -9z"/>
<path d="M1091 3677 c2 -1 13 -9 24 -17 19 -14 19 -14 6 3 -7 9 -18 17 -24 17
-6 0 -8 -1 -6 -3z"/>
<path d="M890 3380 c-8 -5 -10 -10 -5 -10 6 0 17 5 25 10 8 5 11 10 5 10 -5 0
-17 -5 -25 -10z"/>
<path d="M1008 3383 c12 -2 30 -2 40 0 9 3 -1 5 -23 4 -22 0 -30 -2 -17 -4z"/>
<path d="M813 3353 c9 -2 23 -2 30 0 6 3 -1 5 -18 5 -16 0 -22 -2 -12 -5z"/>
<path d="M900 3257 c-25 -5 -61 -10 -80 -10 -19 0 -27 -2 -17 -4 9 -3 15 -8
13 -12 -7 -10 130 16 152 29 15 8 15 9 -3 9 -11 -1 -40 -6 -65 -12z"/>
<path d="M4425 5001 c-17 -7 -16 -9 14 -16 20 -4 35 -15 38 -25 6 -22 42 -33
60 -19 10 9 8 16 -8 38 -21 28 -65 37 -104 22z"/>
<path d="M4413 4739 c-31 -12 -19 -39 17 -39 20 0 28 5 26 15 -4 25 -19 34
-43 24z"/>
<path d="M4596 3411 c-4 -5 3 -7 14 -4 23 6 26 13 6 13 -8 0 -17 -4 -20 -9z"/>
<path d="M4710 3365 c0 -8 6 -15 14 -15 22 0 28 17 10 24 -22 9 -24 8 -24 -9z"/>
<path d="M4675 3310 c-4 -6 8 -10 31 -10 40 0 39 12 -1 17 -13 2 -26 -1 -30
-7z"/>
<path d="M4330 3270 c-13 -9 -13 -10 0 -9 8 1 26 5 40 9 l25 8 -25 1 c-14 0
-32 -4 -40 -9z"/>
<path d="M4588 3243 c7 -3 16 -2 19 1 4 3 -2 6 -13 5 -11 0 -14 -3 -6 -6z"/>
<path d="M4105 3220 c-13 -6 -15 -9 -5 -9 8 0 22 4 30 9 18 12 2 12 -25 0z"/>
<path d="M4085 3190 c-18 -8 -17 -9 7 -9 15 -1 30 4 33 9 7 12 -12 12 -40 0z"/>
<path d="M4588 3193 c6 -2 18 -2 25 0 6 3 1 5 -13 5 -14 0 -19 -2 -12 -5z"/>
<path d="M4525 3160 c-17 -7 -15 -9 13 -9 17 -1 32 4 32 9 0 12 -17 12 -45 0z"/>
<path d="M4515 3130 c-3 -6 1 -7 9 -4 18 7 21 14 7 14 -6 0 -13 -4 -16 -10z"/>
<path d="M4550 3125 c-17 -10 -20 -14 -9 -15 9 0 22 7 29 15 15 18 12 18 -20
0z"/>
<path d="M3152 2885 c0 -16 2 -22 5 -12 2 9 2 23 0 30 -3 6 -5 -1 -5 -18z"/>
<path d="M3845 2790 c-19 -8 -19 -9 3 -9 12 -1 22 4 22 9 0 6 -1 10 -2 9 -2 0
-12 -4 -23 -9z"/>
<path d="M3838 2742 c-20 -4 -25 -22 -5 -21 6 0 21 4 31 8 15 6 16 9 5 12 -8
3 -22 4 -31 1z"/>
<path d="M3735 2730 c-8 -13 15 -13 35 0 12 8 11 10 -7 10 -12 0 -25 -4 -28
-10z"/>
<path d="M2605 2704 c9 -14 15 -27 13 -29 -14 -12 -50 -25 -57 -21 -5 3 -11
-1 -15 -9 -8 -21 -26 -19 -26 3 0 11 -3 13 -8 6 -4 -7 -16 -13 -27 -15 -11 -3
-21 -13 -23 -24 -2 -18 3 -20 52 -19 43 1 62 6 90 27 19 15 41 27 48 27 9 0 9
3 -2 10 -13 9 -13 10 1 10 8 0 24 7 35 15 18 14 17 14 -14 11 -18 -2 -35 1
-38 5 -3 5 -10 7 -15 4 -5 -4 -9 1 -9 9 0 9 -5 16 -11 16 -7 0 -5 -10 6 -26z"/>
<path d="M590 2660 c0 -5 10 -10 23 -10 18 0 19 2 7 10 -19 13 -30 13 -30 0z"/>
<path d="M4031 2659 c-13 -5 -22 -11 -19 -14 5 -5 78 14 78 20 0 8 -33 4 -59
-6z"/>
<path d="M3845 2651 c-17 -7 -15 -9 15 -15 64 -12 147 -3 120 14 -6 4 -31 3
-53 -2 -28 -6 -43 -6 -45 1 -4 12 -9 13 -37 2z"/>
<path d="M3813 2613 c9 -2 25 -2 35 0 9 3 1 5 -18 5 -19 0 -27 -2 -17 -5z"/>
<path d="M2241 2592 c-7 -14 -6 -19 4 -19 7 0 16 9 18 19 3 10 1 18 -4 18 -4
0 -13 -8 -18 -18z"/>
<path d="M3855 2594 c-32 -11 -34 -13 -10 -9 17 2 48 8 70 13 35 9 36 10 10
10 -16 0 -48 -6 -70 -14z"/>
<path d="M3740 2591 c-8 -5 -32 -11 -53 -15 -21 -4 -35 -11 -32 -17 4 -5 11
-6 17 -3 20 13 77 22 80 13 2 -5 9 0 16 11 13 22 1 27 -28 11z"/>
<path d="M3788 2553 c6 -2 18 -2 25 0 6 3 1 5 -13 5 -14 0 -19 -2 -12 -5z"/>
<path d="M1865 2500 c3 -5 8 -10 11 -10 2 0 4 5 4 10 0 6 -5 10 -11 10 -5 0
-7 -4 -4 -10z"/>
<path d="M818 2309 c-32 -12 -36 -27 -10 -35 9 -3 26 -9 37 -13 61 -23 89 -29
121 -24 23 4 49 -1 75 -12 27 -12 43 -15 47 -8 4 5 14 13 22 16 11 4 10 6 -4
6 -24 1 -89 23 -96 33 -3 3 -19 8 -35 10 l-30 4 25 11 25 12 -25 0 c-14 1 -47
3 -75 6 -27 2 -62 0 -77 -6z"/>
<path d="M783 2183 c-38 -19 -43 -33 -11 -33 34 0 88 23 88 37 0 18 -38 15
-77 -4z"/>
<path d="M1005 2172 c-19 -19 16 -30 43 -13 10 6 7 10 -12 13 -14 3 -28 3 -31
0z"/>
<path d="M1030 2120 c19 -13 30 -13 30 0 0 6 -10 10 -22 10 -19 0 -20 -2 -8
-10z"/>
<path d="M824 2113 c15 -4 16 -7 5 -14 -11 -7 -11 -9 3 -9 23 0 48 11 48 21 0
5 -17 8 -37 8 -21 -1 -29 -4 -19 -6z"/>
<path d="M2730 2092 c0 -4 4 -21 9 -39 5 -17 6 -47 1 -67 -4 -21 -4 -38 3 -45
7 -7 3 -8 -10 -5 -21 6 -40 -20 -23 -31 6 -4 10 -2 10 3 0 5 9 8 20 7 19 -1
41 -32 82 -113 6 -12 16 -21 22 -19 13 4 20 67 7 67 -16 0 -13 26 4 40 17 14
20 50 5 50 -5 0 -10 6 -10 13 0 7 -10 21 -21 31 -17 14 -19 20 -8 26 11 7 11
13 0 34 -8 14 -18 23 -23 20 -4 -3 -8 0 -8 6 0 6 -4 9 -9 6 -5 -3 -14 1 -21 9
-13 16 -30 20 -30 7z"/>
<path d="M1750 2040 c-8 -6 -25 -10 -37 -10 -20 0 -40 -16 -32 -25 5 -4 78 21
86 29 11 11 -2 15 -17 6z"/>
<path d="M1670 1980 c-13 -11 -27 -20 -32 -20 -12 0 -6 -43 7 -52 6 -4 -5 -10
-23 -14 -18 -4 -35 -11 -38 -15 -3 -5 -17 -9 -32 -9 -15 0 -78 -12 -140 -26
-96 -22 -117 -31 -142 -58 -30 -32 -39 -56 -19 -56 5 0 7 -5 3 -11 -4 -8 5 -9
32 -5 22 3 64 8 94 12 30 3 58 8 63 11 14 8 7 25 -8 19 -8 -3 -22 -9 -30 -12
-10 -4 -15 -2 -13 7 4 17 31 27 79 28 46 1 99 20 99 34 1 15 40 44 65 49 29 5
60 39 45 48 -20 12 48 32 70 20 32 -17 55 -11 89 24 l33 34 -30 -4 c-16 -2
-41 -8 -56 -14 -34 -13 -39 -13 -30 1 7 12 -31 4 -51 -11 -5 -4 -19 -10 -30
-14 -16 -6 -14 -1 9 23 33 34 22 42 -14 11z"/>
<path d="M2445 1990 c-3 -5 1 -10 10 -10 9 0 13 5 10 10 -3 6 -8 10 -10 10 -2
0 -7 -4 -10 -10z"/>
<path d="M1215 1970 c-3 -5 1 -10 9 -10 8 0 18 5 21 10 3 6 -1 10 -9 10 -8 0
-18 -4 -21 -10z"/>
<path d="M400 1949 c0 -5 5 -7 10 -4 6 3 10 8 10 11 0 2 -4 4 -10 4 -5 0 -10
-5 -10 -11z"/>
<path d="M1745 1880 c-7 -12 2 -12 30 0 19 8 19 9 -2 9 -12 1 -25 -3 -28 -9z"/>
<path d="M1475 1620 c-3 -6 1 -7 9 -4 18 7 21 14 7 14 -6 0 -13 -4 -16 -10z"/>
<path d="M1407 1604 c-16 -9 -27 -18 -24 -21 6 -5 67 24 67 32 0 8 -14 5 -43
-11z"/>
<path d="M1480 1560 c-8 -5 -25 -7 -36 -4 -12 3 -35 -1 -51 -10 l-28 -15 25
-1 c18 0 21 -3 11 -9 -7 -5 -10 -14 -7 -20 8 -13 44 4 91 44 29 24 26 35 -5
15z"/>
<path d="M2947 1540 c-9 -19 -16 -29 -17 -22 0 6 -8 12 -18 12 -10 0 -24 6
-31 13 -11 10 -12 8 -3 -9 6 -12 9 -24 5 -27 -3 -4 0 -14 7 -22 11 -13 11 -16
-1 -13 -17 4 -39 30 -33 40 9 14 -7 9 -22 -7 -11 -10 -14 -25 -9 -48 6 -30 5
-31 -9 -13 -20 24 -28 16 -31 -29 -2 -33 -15 -64 -15 -37 0 7 -4 12 -9 12 -5
0 -7 -10 -3 -22 4 -16 2 -20 -10 -15 -12 4 -14 1 -11 -14 7 -26 -6 -24 -17 4
-8 21 -9 21 -9 -5 -1 -45 -11 -61 -29 -46 -13 11 -14 9 -9 -17 l7 -30 -21 25
c-12 14 -20 18 -17 10 6 -16 -21 -70 -35 -70 -4 0 -5 -6 -1 -12 5 -10 4 -10
-6 -1 -11 10 -17 8 -32 -15 -10 -15 -18 -21 -18 -14 0 21 -17 13 -24 -10 -5
-22 -6 -22 -19 -4 -13 18 -14 17 -12 -12 2 -37 -1 -38 -27 -15 -18 16 -24 9
-19 -21 1 -5 -5 -6 -14 -3 -10 5 -15 0 -15 -13 0 -22 -16 -35 -25 -19 -8 12
-35 -34 -35 -60 0 -9 9 -27 20 -41 11 -14 20 -31 20 -37 0 -7 6 -13 13 -13 19
0 68 50 61 62 -4 6 -3 13 2 17 9 6 47 81 57 111 3 8 6 3 6 -12 1 -15 -3 -30
-9 -33 -17 -10 -12 -45 7 -45 9 0 13 3 10 6 -3 4 5 15 18 26 14 11 25 26 25
33 0 7 7 21 17 30 13 14 14 18 3 25 -10 6 -9 16 7 49 17 35 21 38 26 21 5 -18
8 -19 34 -8 15 7 34 21 41 30 7 10 21 18 30 18 18 1 62 29 46 31 -12 1 93 27
132 33 17 2 52 11 78 20 26 9 64 16 86 16 21 0 41 4 44 9 5 8 64 25 79 22 4 0
7 3 7 9 0 6 15 8 35 4 22 -3 35 -1 35 5 0 6 6 11 14 11 8 0 16 7 20 15 3 8 1
15 -5 15 -5 0 -15 12 -21 26 -11 23 -13 24 -24 10 -10 -15 -12 -14 -19 6 l-8
23 -4 -22 c-6 -33 -27 -28 -41 10 -11 29 -14 30 -23 14 -8 -14 -14 -16 -25 -6
-8 6 -14 17 -14 25 0 7 -5 16 -11 19 -6 4 -10 1 -8 -6 3 -25 -1 -39 -11 -39
-5 0 -10 9 -10 20 0 25 -20 27 -21 3 0 -15 -2 -15 -9 2 -7 17 -9 17 -9 3 -1
-29 -21 -20 -22 10 l-1 27 -7 -25 -7 -25 -13 24 c-13 23 -14 23 -27 7 -11 -16
-13 -16 -16 6 -4 21 -6 20 -21 -12z m-87 -85 c0 -5 -5 -3 -10 5 -5 8 -10 20
-10 25 0 6 5 3 10 -5 5 -8 10 -19 10 -25z m-80 -125 c0 -5 -2 -10 -4 -10 -3 0
-8 5 -11 10 -3 6 -1 10 4 10 6 0 11 -4 11 -10z"/>
<path d="M3580 1459 c27 -52 51 -78 65 -72 8 3 15 14 15 24 0 10 3 18 8 17 7
-3 12 5 12 22 0 20 -30 -3 -31 -24 0 -18 -2 -18 -10 5 -6 15 -18 30 -27 33 -9
3 -23 9 -30 12 -12 5 -12 2 -2 -17z"/>
<path d="M3535 1460 c-3 -5 3 -15 15 -22 11 -7 20 -20 20 -28 0 -8 9 -21 20
-28 17 -10 20 -10 20 2 0 8 -6 19 -13 23 -6 4 -18 20 -26 36 -15 28 -26 34
-36 17z"/>
<path d="M3520 1415 c0 -5 5 -17 10 -25 5 -8 10 -10 10 -5 0 6 -5 17 -10 25
-5 8 -10 11 -10 5z"/>
<path d="M3550 1390 c0 -11 4 -20 9 -20 5 0 7 9 4 20 -3 11 -7 20 -9 20 -2 0
-4 -9 -4 -20z"/>
<path d="M504 1315 c-77 -40 -165 -105 -141 -105 8 0 18 -7 21 -16 6 -16 21
-12 21 5 0 17 75 71 99 71 14 0 35 5 46 12 33 21 37 -2 5 -28 -62 -52 -77 -64
-72 -64 3 0 60 27 128 61 83 40 113 59 92 56 -18 -2 -35 1 -37 7 -3 7 -8 6
-14 -2 -7 -11 -10 -10 -16 3 -8 23 -8 27 3 20 5 -3 12 -1 16 5 4 6 -11 10 -38
10 -32 0 -65 -10 -113 -35z"/>
<path d="M730 1272 c-56 -24 -78 -38 -65 -40 27 -5 44 -22 21 -22 -9 0 -14 -5
-11 -10 4 -6 17 -3 35 10 15 11 40 20 54 20 28 0 85 49 78 68 -6 18 -19 15
-112 -26z"/>
<path d="M450 1190 c0 -5 5 -10 11 -10 5 0 7 5 4 10 -3 6 -8 10 -11 10 -2 0
-4 -4 -4 -10z"/>
<path d="M2632 1180 c0 -14 2 -19 5 -12 2 6 2 18 0 25 -3 6 -5 1 -5 -13z"/>
<path d="M370 1158 c0 -5 5 -6 10 -3 17 11 11 -7 -7 -22 -14 -10 -10 -10 14 1
44 22 49 35 13 34 -16 -1 -30 -5 -30 -10z"/>
<path d="M410 1114 c-58 -33 -59 -34 -16 -27 42 7 48 -3 10 -17 -34 -13 -28
-44 9 -48 29 -3 107 39 107 57 0 14 -25 20 -40 11 -22 -13 -30 -2 -20 25 12
31 6 31 -50 -1z"/>
<path d="M2930 1120 c0 -5 7 -7 15 -4 8 4 15 8 15 10 0 2 -7 4 -15 4 -8 0 -15
-4 -15 -10z"/>
<path d="M2775 1089 c-11 -17 1 -21 15 -4 8 9 8 15 2 15 -6 0 -14 -5 -17 -11z"/>
<path d="M2653 1032 c-1 -10 5 -19 12 -19 7 0 16 9 18 19 4 12 0 18 -12 18 -9
0 -17 -8 -18 -18z"/>
<path d="M532 969 c-24 -16 -32 -27 -30 -48 1 -15 -1 -32 -5 -38 -15 -23 36
-22 72 3 28 19 31 24 15 24 -11 0 -25 -5 -32 -12 -6 -6 -15 -8 -19 -4 -7 6 -1
18 35 74 18 27 7 28 -36 1z"/>
<path d="M4787 922 c-16 -3 -16 -5 0 -35 24 -44 54 -77 69 -77 8 0 11 -6 8
-14 -3 -8 2 -28 10 -45 9 -17 16 -33 16 -36 -1 -3 8 -17 18 -30 23 -28 67 -42
86 -26 7 6 21 8 31 5 22 -9 1 -24 -34 -24 -23 0 -24 -1 -6 -20 10 -11 28 -20
39 -20 18 0 21 6 21 37 0 31 -4 38 -25 43 -14 3 -29 16 -35 28 -5 12 -15 22
-21 22 -7 0 -10 8 -7 20 3 12 0 20 -6 20 -7 0 -11 6 -10 13 4 29 -2 46 -18 49
-9 2 -26 21 -37 43 -14 26 -28 40 -42 41 -12 1 -25 3 -30 6 -5 2 -17 3 -27 0z"/>
<path d="M572 864 c-19 -13 -52 -67 -52 -85 0 -5 7 -6 15 -3 10 4 15 0 15 -10
0 -18 61 -86 77 -86 5 0 28 14 51 31 49 36 57 77 20 103 -12 9 -18 16 -13 16
6 0 4 4 -4 9 -8 5 -30 7 -49 4 -30 -5 -34 -4 -29 10 9 23 -6 29 -31 11z"/>
<path d="M799 767 c-97 -69 -139 -101 -135 -105 2 -2 16 4 30 14 l27 17 -11
-27 -10 -27 32 22 c63 44 116 90 122 106 13 32 -11 32 -55 0z"/>
<path d="M923 754 c-7 -7 -13 -18 -13 -23 0 -6 -6 -14 -13 -18 -7 -4 -19 -23
-26 -40 -14 -34 -38 -43 -47 -19 -3 8 0 24 6 36 9 16 1 13 -38 -15 -66 -47
-74 -58 -66 -89 7 -30 27 -42 67 -40 25 1 90 62 160 151 16 20 17 22 2 16 -15
-5 -16 -3 -6 14 14 27 -7 48 -26 27z"/>
<path d="M896 597 c-64 -72 -65 -74 -55 -111 8 -31 14 -36 34 -33 60 8 135
124 80 124 -8 0 -12 -4 -9 -9 3 -4 1 -8 -5 -8 -5 0 -16 -3 -25 -6 -28 -11 -18
27 20 72 56 69 32 51 -40 -29z"/>
<path d="M981 495 c-57 -54 -60 -75 -13 -75 21 0 24 -2 12 -10 -11 -7 -4 -10
27 -10 35 0 45 5 62 29 22 31 27 51 12 51 -5 0 -12 15 -15 33 -3 19 -12 34
-19 33 -6 0 -36 -23 -66 -51z"/>
<path d="M5050 495 c-11 -13 -9 -15 13 -15 14 0 32 -3 41 -6 11 -4 16 -1 16
10 0 9 -6 16 -14 16 -8 0 -21 2 -29 5 -7 3 -20 -1 -27 -10z"/>
<path d="M1086 421 c-25 -26 -26 -31 -14 -52 18 -32 28 -39 61 -39 15 0 27 -5
27 -11 0 -5 5 -7 10 -4 6 4 15 -7 21 -24 10 -29 11 -30 35 -15 23 15 24 15 24
-5 0 -22 14 -28 25 -11 3 6 11 10 16 10 6 0 7 -6 3 -12 -5 -9 -2 -9 9 1 10 8
17 9 17 3 0 -13 38 -27 62 -23 9 1 19 -6 22 -16 14 -45 99 -17 115 38 15 50
15 51 -18 34 -23 -11 -31 -12 -34 -2 -3 6 -10 0 -16 -15 -14 -37 -32 -36 -26
2 3 17 7 43 9 58 8 46 -7 57 -33 23 -34 -44 -56 -35 -54 23 1 45 -8 59 -24 32
-14 -23 -47 -28 -69 -9 -10 10 -26 18 -34 18 -8 0 -14 6 -12 13 2 14 -45 7
-62 -9 -16 -14 -29 -10 -22 6 9 24 -8 18 -38 -14z"/>
<path d="M5101 331 c-12 -8 -12 -12 2 -26 16 -15 17 -15 17 9 0 29 0 29 -19
17z"/>
<path d="M1592 308 c-7 -7 -12 -18 -12 -26 0 -9 -7 -13 -19 -9 -15 4 -22 -3
-31 -26 -11 -33 -2 -47 33 -47 9 0 17 -5 17 -11 0 -5 4 -8 10 -4 17 11 58 -7
64 -28 5 -20 6 -20 24 -4 23 21 36 21 52 2 19 -23 28 -18 35 17 5 22 3 35 -7
42 -8 6 -22 23 -31 37 -16 24 -21 25 -62 19 -46 -7 -49 -5 -46 33 3 20 -10 22
-27 5z m85 -100 c-3 -8 -6 -5 -6 6 -1 11 2 17 5 13 3 -3 4 -12 1 -19z m-3 -34
c3 -8 2 -12 -4 -9 -6 3 -10 10 -10 16 0 14 7 11 14 -7z"/>
<path d="M1901 239 c-5 -16 -13 -29 -16 -29 -3 0 -3 5 0 10 3 6 1 10 -4 10
-16 0 -13 -64 7 -150 l18 -75 244 -3 c156 -1 247 1 254 8 7 7 5 10 -7 10 -9 0
-17 5 -17 11 0 5 -4 8 -9 5 -5 -4 -21 8 -35 25 -16 19 -32 29 -41 25 -21 -8
-45 3 -45 21 0 8 -16 21 -35 29 -19 8 -35 19 -35 26 0 6 -7 20 -16 29 -13 14
-21 16 -35 8 -14 -7 -21 -6 -24 3 -3 8 -18 15 -33 16 -15 1 -28 6 -30 11 -2 5
-16 7 -32 5 -15 -3 -31 0 -34 5 -4 6 -13 8 -21 4 -8 -3 -15 -1 -15 5 0 5 -6
12 -14 15 -10 4 -18 -4 -25 -24z"/>
<path d="M1791 212 c-19 -57 -12 -87 21 -88 24 -1 27 2 23 30 -4 29 -4 28 8
-6 14 -43 33 -65 24 -28 -4 14 -7 36 -7 50 0 14 -5 32 -10 40 -9 13 -11 13
-20 0 -8 -12 -10 -11 -10 7 0 37 -16 34 -29 -5z"/>
<path d="M2684 144 c3 -9 6 -18 6 -20 0 -3 5 -2 10 1 16 10 12 35 -6 35 -11 0
-14 -5 -10 -16z"/>
</g>
</svg>
